<?xml version="1.0" encoding="utf-8"?>
<!-- Generator: Adobe Illustrator 20.1.0, SVG Export Plug-In . SVG Version: 6.00 Build 0)  -->
<svg version="1.1" id="svg3010" xmlns:svg="http://www.w3.org/2000/svg"
	 xmlns="http://www.w3.org/2000/svg" xmlns:xlink="http://www.w3.org/1999/xlink" x="0px" y="0px" viewBox="0 0 463 436"
	 style="enable-background:new 0 0 463 436;" xml:space="preserve">
<style type="text/css">
	.st0{fill:#ECA395;stroke:#ECA395;stroke-width:40;stroke-miterlimit:10;}
	.st1{fill:#FFFFFF;}
	.st2{fill:#1C1C1C;}
</style>
<rect x="88" y="39" class="st0" width="195" height="195"/>
<g>
	<path id="path4109" class="st1" d="M98.7,140.7c2.7,3.6,5.5,7.2,8.3,10.7l1.2,1.5l-1.4,1.2c-3.5,2.9-7,5.7-10.5,8.6
		c28.2,36.2,56.6,72.2,84.9,108.3l1.2,1.6l-1.5,1.2c-3,2.4-6,4.8-8.9,7.2l-1.6,1.3l-1.3-1.6c-2.7-3.6-5.5-7.1-8.3-10.5
		c-12.3,9.5-24.6,19.1-36.7,28.9c9.6,12.2,19.1,24.4,28.7,36.6c3.6-2.7,7.3-5.4,10.7-8.5l1.9-1.7l1.2,2.2c2.3,3.9,5.4,7.2,8.2,10.7
		c3.5-2.5,7-5.1,10.4-7.8l1.5-1.1l1.3,1.4c6.5,7.1,12.2,14.9,18.2,22.4c3.6-2.6,7.2-5.3,10.8-8.1l1.5-1.2l1.2,1.5
		c6,7.5,11.9,15.1,18,22.6c3.6-2.7,7.3-5.4,10.7-8.4l1.7-1.5l1.3,1.9c5.3,8,11.8,15.2,17.7,22.9c3.5-2.6,7-5.3,10.5-8l1.6-1.2
		l1.2,1.5c9.3,11.6,18.4,23.3,27.8,34.9c20.4-15.5,40.6-31.4,60.7-47.2c20.6-16.3,41.4-32.3,61.7-49c-9.5-11.4-17.6-23.9-27.2-35.1
		l-1.4-1.6l1.7-1.3c3.5-2.6,7-5.4,10.3-8.2c-9-11.7-18.1-23.3-27.2-34.9l-1.1-1.4l1.3-1.2c3.3-3.1,6.8-5.9,10.4-8.7
		c-10.1-13-20.5-25.8-30.3-39.1l0,0l0,0c-12.7-15.3-24.6-31.1-37.1-46.5c-3.5,2.8-7,5.5-10.5,8.2l-1.5,1.2l-1.2-1.5
		c-2.8-3.4-5.5-6.8-8.2-10.3c-3.7,2.7-7.2,5.6-10.9,8.2l-1.4,1l-1.2-1.3c-3.1-3.4-5.8-7.1-8.7-10.7c-7.6,5.9-15.2,12-22.9,17.8
		l-1.5,1.2l-1.2-1.5c-2.8-3.4-5.5-6.8-8.2-10.3c-12.2,8.6-23.5,18.1-35.3,27.2l-1.5,1.2l-1.2-1.4c-2.9-3.4-5.8-6.9-8.6-10.5
		c-7.6,5.9-15.2,12-22.9,17.7l-1.5,1.1l-1.2-1.5c-12.5-15.6-24.8-31.4-37.2-47.1c-2,1.6-4.1,3.1-6.1,4.7c-1.5,1.2-3,2.4-4.5,3.6
		l-1.6,1.3l-1.2-1.6c-2.8-3.6-5.6-7.3-8.8-10.6C114.8,128.1,106.8,134.4,98.7,140.7L98.7,140.7z"/>
	<path id="path3016" class="st2" d="M98.7,140.7c8.1-6.3,16.1-12.6,24.1-18.9c3.5,3.7,6.7,7.8,9.8,11.9
		c-8.1,6.5-16.3,12.8-24.4,19.3C105,148.9,101.8,144.8,98.7,140.7z"/>
	<path id="path3018" class="st2" d="M96.2,162.7c4-3.2,8.1-6.4,12-9.8c35.3,44.9,70.6,89.7,105.8,134.7c-4,3.3-8.1,6.5-12.3,9.6
		c-3.2-4-6.4-8-9.5-12.1c-4.2,3-8.2,6.3-12.3,9.5c-3.4-4-6.6-8.1-9.7-12.3c3.9-3.3,8-6.5,12.1-9.7C153.5,236,124.7,199.5,96.2,162.7
		L96.2,162.7z"/>
	<path id="path3020" class="st2" d="M132.9,133.9c4-3.2,8.1-6.4,12.2-9.5c12.8,16.2,25.5,32.5,38.4,48.6c8.3-6.2,16.3-12.6,24.4-19
		c3.2,4.1,6.4,8.1,9.8,12c12.3-9.4,24.2-19.5,36.9-28.4c3.1,4,6.2,7.9,9.4,11.8c8.2-6.2,16.3-12.7,24.4-19.1c3.2,4,6.2,8.3,9.8,12
		c4.3-2.8,8.2-6.2,12.3-9.3c3.1,4,6.2,8,9.4,11.8c4.1-3.1,8.1-6.2,12.1-9.4c12.5,15.5,24.4,31.3,37.1,46.6
		c9.8,13.3,20.3,26.1,30.4,39.2c-4.1,3.1-8.1,6.3-11.7,9.9c9.5,12.1,18.9,24.2,28.3,36.3c-3.9,3.3-7.8,6.6-12,9.5
		c-10.1-11.9-19.6-24.4-29.1-36.8c4.1-3.1,8.1-6.3,12.1-9.5c-22.4-28.6-44.8-57.1-67.2-85.7c-4.1,3.1-8.1,6.3-12.1,9.5
		c-3.3-3.8-6.2-8-9.7-11.7c-4.6,2.4-8.3,6.1-12.4,9.2c9.5,12.3,19.4,24.4,28.8,36.8c-4,3.1-8,6.3-12,9.4
		c-13.1-16.1-25.7-32.7-38.6-48.9c-8.2,6.4-16.4,12.8-24.6,19.3c9.6,12.2,19.3,24.4,28.8,36.7c-4,3.3-8,6.5-12.2,9.6
		c-12.9-16.3-25.7-32.6-38.4-49c-8.2,6.4-16.4,12.8-24.5,19.4c12.7,16.4,25.7,32.6,38.4,48.9c-4,3.3-8.1,6.6-12.3,9.7
		C190.4,207.3,161.5,170.6,132.9,133.9L132.9,133.9z"/>
	<path id="path3026" class="st2" d="M124,299.1c12.1-9.8,24.4-19.4,36.7-28.9c3.3,4,6.5,8,9.6,12.1c-8,6.6-16.2,12.8-24.3,19.2
		c6.1,8.3,13.2,15.9,18.9,24.4c-3.7,3.7-8.1,6.6-12.2,9.7C143,323.5,133.6,311.3,124,299.1z"/>
	<path id="path3030" class="st2" d="M165.5,326c3.5-3.7,7.6-6.6,11.7-9.6c3.3,4,6.5,8.1,9.7,12.2c4.1-3.2,8.2-6.4,12.3-9.6
		c6.5,8.1,12.8,16.3,19.2,24.4c4-3.2,8.1-6.4,12.1-9.5c6.4,8.2,13.4,16,18.9,24.8c-3.7,3.5-7.9,6.3-11.9,9.4
		c-6.5-8-12.8-16.1-19.2-24.1c-4.1,3.2-8.2,6.3-12.3,9.3c-6.4-7.9-12.4-16.3-19.4-23.7c-3.9,3.1-7.9,6.1-11.9,9
		C171.5,334.4,167.6,330.7,165.5,326L165.5,326z"/>
	<path id="path3038" class="st2" d="M250,358.3c3.7-3.5,7.9-6.4,11.9-9.5c6.5,8,12.8,16.2,19.2,24.3c4.1-3.2,8.2-6.4,12.3-9.5
		c6.5,8.1,12.7,16.3,19.2,24.3c32.6-25.5,65.2-51.1,97.7-76.7c-6.3-8.2-12.8-16.2-19.1-24.4c4.1-3.3,8.2-6.7,12.6-9.7
		c10.2,11.7,18.6,24.8,28.6,36.7c-20.3,16.7-41.1,32.8-61.7,49c-20.2,15.9-40.3,31.7-60.7,47.2c-9.7-12.1-19.2-24.3-29-36.4
		c-4,3.1-8,6.2-12.1,9.2C262.6,374.7,255.5,367,250,358.3L250,358.3z"/>
</g>
</svg>
